ply
format ascii 1.0
element vertex 29
property float x
property float y
property float z
property float nx
property float ny
property float nz
property uchar red
property uchar green
property uchar blue
end_header
-0.474801 0.499504 0.294467 0 0 0 0 0 255
0.145366 0.334378 0.235036 0 0 0 0 0 255
-0.363543 -0.0465141 0.522696 0 0 0 0 0 255
0.154802 -0.0690727 0.243682 0 0 0 0 0 255
-0.47151 -0.33527 1.46581 0 0 0 0 255 0
-0.497485 -0.0338409 1.54969 0 0 0 0 255 0
-0.519077 0.25444 1.62004 0 0 0 0 255 0
-0.506008 0.369665 1.66839 0 0 0 0 255 0
-0.589185 0.203119 1.42411 0 0 0 0 255 0
-0.535757 -0.0399381 1.22438 0 0 0 0 255 0
-0.379755 -0.011574 1.00342 0 0 0 0 255 0
-0.362161 0.0448261 0.97019 0 0 0 0 255 0
-0.376887 0.10891 1.71288 0 0 0 0 255 0
-0.306186 -0.102967 1.53738 0 0 0 0 255 0
-0.321933 -0.33748 1.38905 0 0 0 0 255 0
-0.334372 -0.386642 1.37831 0 0 0 0 255 0
-0.50386 -0.309877 1.36953 0 0 0 0 255 0
-0.581452 -0.632979 1.33773 0 0 0 0 255 0
-0.780989 -0.694387 1.1246 0 0 0 0 255 0
-0.721331 -0.650675 0.999649 0 0 0 0 255 0
-0.418468 -0.345952 1.49732 0 0 0 0 255 0
-0.445021 -0.676884 1.41754 0 0 0 0 255 0
-0.488927 -0.947445 1.55295 0 0 0 0 255 0
-0.422152 -0.985069 1.6162 0 0 0 0 255 0
-0.514318 0.183989 1.60463 0 0 0 0 255 0
-0.310137 0.0623499 0.879021 0 0 0 0 255 0
-0.311451 0.0586926 0.987198 0 0 0 0 255 0
-0.32567 -0.434915 1.3465 0 0 0 0 255 0
-0.351544 -0.350584 1.35475 0 0 0 0 255 0
