ply
format ascii 1.0
element vertex 29
property float x
property float y
property float z
property float nx
property float ny
property float nz
property uchar red
property uchar green
property uchar blue
end_header
-1.3525 1.91424 1.26982 0 0 0 0 0 255
0.483139 1.73719 0.754331 0 0 0 0 0 255
-1.8182 0.531276 0.637696 0 0 0 0 0 255
1.31835 0.496947 0.305294 0 0 0 0 0 255
-0.519795 -0.507487 2.13977 0 0 0 0 255 0
-0.536363 -0.195637 2.25166 0 0 0 0 255 0
-0.550144 0.107974 2.34845 0 0 0 0 255 0
-0.545714 0.234291 2.37175 0 0 0 0 255 0
-0.691453 0.0526578 2.16415 0 0 0 0 255 0
-0.562196 -0.0359572 1.92017 0 0 0 0 255 0
-0.440867 -0.00958754 1.72369 0 0 0 0 255 0
-0.398219 -0.00293894 1.64706 0 0 0 0 255 0
-0.370999 -0.00955036 2.36202 0 0 0 0 255 0
-0.307843 -0.227548 2.22659 0 0 0 0 255 0
-0.307798 -0.42208 2.10935 0 0 0 0 255 0
-0.328416 -0.45026 2.12583 0 0 0 0 255 0
-0.581626 -0.481208 2.05209 0 0 0 0 255 0
-0.621155 -0.853112 2.03352 0 0 0 0 255 0
-0.657434 -1.33705 1.9282 0 0 0 0 255 0
-0.58525 -1.34174 1.77898 0 0 0 0 255 0
-0.440546 -0.516769 2.15873 0 0 0 0 255 0
-0.455605 -0.888422 2.0661 0 0 0 0 255 0
-0.596977 -1.33058 2.21431 0 0 0 0 255 0
-0.591963 -1.43819 2.17606 0 0 0 0 255 0
-0.547061 0.033154 2.32678 0 0 0 0 255 0
-0.369279 0.00883728 1.61461 0 0 0 0 255 0
-0.387487 0.0338448 1.637 0 0 0 0 255 0
-0.268811 -0.389058 2.01347 0 0 0 0 255 0
-0.295847 -0.336434 2.07314 0 0 0 0 255 0
