ply
format ascii 1.0
element vertex 29
property float x
property float y
property float z
property float nx
property float ny
property float nz
property uchar red
property uchar green
property uchar blue
end_header
-0.59242 0.50046 3.32074 0 0 0 0 0 255
-0.131587 0.467869 3.09778 0 0 0 0 0 255
-0.480546 0.150361 3.22927 0 0 0 0 0 255
-0.211951 0.192763 3.15006 0 0 0 0 0 255
-0.343429 -0.382258 1.41215 0 0 0 0 255 0
-0.364236 -0.050678 1.52061 0 0 0 0 255 0
-0.380837 0.263418 1.61138 0 0 0 0 255 0
-0.386875 0.397616 1.63286 0 0 0 0 255 0
-0.489782 0.150533 1.44146 0 0 0 0 255 0
-0.477151 0.0329654 1.2128 0 0 0 0 255 0
-0.473508 -0.0251506 0.981164 0 0 0 0 255 0
-0.483937 -0.0335995 0.936021 0 0 0 0 255 0
-0.196143 0.123238 1.55552 0 0 0 0 255 0
-0.11027 -0.0310666 1.4361 0 0 0 0 255 0
-0.286574 -0.0439356 1.33009 0 0 0 0 255 0
-0.339445 -0.0590602 1.35411 0 0 0 0 255 0
-0.41499 -0.367575 1.34889 0 0 0 0 255 0
-0.414345 -0.639224 1.33683 0 0 0 0 255 0
-0.428461 -1.04239 1.36842 0 0 0 0 255 0
-0.382113 -1.09058 1.25541 0 0 0 0 255 0
-0.253626 -0.37668 1.40045 0 0 0 0 255 0
-0.292971 -0.671111 1.36631 0 0 0 0 255 0
-0.349405 -1.04812 1.36561 0 0 0 0 255 0
-0.316484 -1.08937 1.24312 0 0 0 0 255 0
-0.377286 0.18697 1.59128 0 0 0 0 255 0
-0.502554 -0.0428374 0.851043 0 0 0 0 255 0
-0.46217 -0.0718091 0.922949 0 0 0 0 255 0
-0.424397 -0.0760689 1.30517 0 0 0 0 255 0
-0.368415 -0.00707378 1.36553 0 0 0 0 255 0
