ply
format ascii 1.0
element vertex 29
property float x
property float y
property float z
property float nx
property float ny
property float nz
property uchar red
property uchar green
property uchar blue
end_header
-0.18435 0.407321 0.675881 0 0 0 0 0 255
0.178012 0.614667 0.168186 0 0 0 0 0 255
-0.245842 0.14524 0.63439 0 0 0 0 0 255
0.255798 -0.0200323 0.543742 0 0 0 0 0 255
-0.803002 -0.493768 2.07568 0 0 0 0 255 0
-0.799429 -0.199378 2.16966 0 0 0 0 255 0
-0.791415 0.08677 2.25118 0 0 0 0 255 0
-0.764645 0.200098 2.2819 0 0 0 0 255 0
-0.914495 0.0384808 2.06348 0 0 0 0 255 0
-0.762254 -0.0325435 1.8261 0 0 0 0 255 0
-0.637236 -0.010345 1.67786 0 0 0 0 255 0
-0.578981 -0.000617367 1.61456 0 0 0 0 255 0
-0.656558 -0.0660125 2.28973 0 0 0 0 255 0
-0.617981 -0.287632 2.10658 0 0 0 0 255 0
-0.704356 -0.108955 1.96824 0 0 0 0 255 0
-0.733915 -0.0976793 1.93715 0 0 0 0 255 0
-0.849321 -0.463168 1.97806 0 0 0 0 255 0
-0.895349 -0.774752 1.98313 0 0 0 0 255 0
-0.714841 -1.05782 2.0277 0 0 0 0 255 0
-0.751445 -0.966023 1.95402 0 0 0 0 255 0
-0.732541 -0.509974 2.11138 0 0 0 0 255 0
-0.744215 -0.824983 2.02318 0 0 0 0 255 0
-0.794217 -1.27734 1.98198 0 0 0 0 255 0
-0.717025 -1.31294 1.88336 0 0 0 0 255 0
-0.794248 0.0161778 2.23299 0 0 0 0 255 0
-0.540539 0.0315851 1.53964 0 0 0 0 255 0
-0.575406 0.0318638 1.5811 0 0 0 0 255 0
-0.737899 -0.088588 1.83858 0 0 0 0 255 0
-0.755497 -0.119313 1.92773 0 0 0 0 255 0
