ply
format ascii 1.0
element vertex 29
property float x
property float y
property float z
property float nx
property float ny
property float nz
property uchar red
property uchar green
property uchar blue
end_header
-0.3212 -0.109117 3.89499 0 0 0 0 0 255
-0.129856 -0.106969 3.89641 0 0 0 0 0 255
-0.263947 -0.315027 3.87752 0 0 0 0 0 255
-0.291817 -0.19118 4.0849 0 0 0 0 0 255
-0.235246 -0.374646 1.50066 0 0 0 0 255 0
-0.255881 -0.0494317 1.60492 0 0 0 0 255 0
-0.273706 0.259052 1.69142 0 0 0 0 255 0
-0.301939 0.401741 1.70711 0 0 0 0 255 0
-0.46086 0.117457 1.62675 0 0 0 0 255 0
-0.466588 -0.0711306 1.44275 0 0 0 0 255 0
-0.291094 -0.128909 1.26421 0 0 0 0 255 0
-0.27663 -0.0951963 1.2722 0 0 0 0 255 0
-0.0805411 0.131282 1.62432 0 0 0 0 255 0
-0.000872211 -0.14239 1.52513 0 0 0 0 255 0
0.00482131 -0.366286 1.40768 0 0 0 0 255 0
-0.00187845 -0.392069 1.4042 0 0 0 0 255 0
-0.310001 -0.371632 1.46266 0 0 0 0 255 0
-0.301739 -0.675322 1.43969 0 0 0 0 255 0
-0.300449 -1.06483 1.45357 0 0 0 0 255 0
-0.297604 -1.10582 1.32124 0 0 0 0 255 0
-0.148226 -0.358224 1.46083 0 0 0 0 255 0
-0.162078 -0.683795 1.43198 0 0 0 0 255 0
-0.1811 -1.05183 1.43713 0 0 0 0 255 0
-0.186133 -1.08865 1.30243 0 0 0 0 255 0
-0.269682 0.183921 1.67246 0 0 0 0 255 0
-0.222515 -0.0656845 1.22638 0 0 0 0 255 0
-0.279272 -0.0394638 1.28578 0 0 0 0 255 0
-0.0215765 -0.464475 1.3894 0 0 0 0 255 0
0.0412948 -0.404959 1.4002 0 0 0 0 255 0
