ply
format ascii 1.0
element vertex 29
property float x
property float y
property float z
property float nx
property float ny
property float nz
property uchar red
property uchar green
property uchar blue
end_header
-0.313883 0.436455 0.484306 0 0 0 0 0 255
0.115262 0.414505 0.405539 0 0 0 0 0 255
-0.393422 0.111465 0.343237 0 0 0 0 0 255
0.195769 0.0503489 0.657936 0 0 0 0 0 255
0.496223 -0.255286 1.01104 0 0 0 0 255 0
0.545326 0.0662324 1.09751 0 0 0 0 255 0
0.586158 0.364774 1.16792 0 0 0 0 255 0
0.561918 0.495826 1.20373 0 0 0 0 255 0
0.440064 0.271333 1.14284 0 0 0 0 255 0
0.300246 0.173317 0.889221 0 0 0 0 255 0
0.232809 0.0653916 0.644857 0 0 0 0 255 0
0.231372 0.0792179 0.622036 0 0 0 0 255 0
0.653435 0.227277 1.04946 0 0 0 0 255 0
0.574437 -0.0217979 0.902586 0 0 0 0 255 0
0.557898 -0.275352 0.845442 0 0 0 0 255 0
0.54496 -0.318926 0.846886 0 0 0 0 255 0
0.397103 -0.241318 0.983945 0 0 0 0 255 0
0.508328 -0.49126 1.00499 0 0 0 0 255 0
0.69102 -0.868391 1.0862 0 0 0 0 255 0
0.710947 -0.94333 1.00373 0 0 0 0 255 0
0.561915 -0.25218 0.970798 0 0 0 0 255 0
0.63541 -0.502748 0.992328 0 0 0 0 255 0
0.78346 -0.91819 1.07898 0 0 0 0 255 0
0.782401 -0.986318 0.992767 0 0 0 0 255 0
0.577047 0.292751 1.15244 0 0 0 0 255 0
0.209613 0.0903534 0.53112 0 0 0 0 255 0
0.212321 0.0341478 0.61844 0 0 0 0 255 0
0.540658 -0.359174 0.854293 0 0 0 0 255 0
0.494677 -0.334925 0.833067 0 0 0 0 255 0
