ply
format ascii 1.0
element vertex 29
property float x
property float y
property float z
property float nx
property float ny
property float nz
property uchar red
property uchar green
property uchar blue
end_header
-0.27709 0.478602 0.432249 0 0 0 0 0 255
0.192139 0.49487 0.450741 0 0 0 0 0 255
-0.25009 0.188004 0.408935 0 0 0 0 0 255
0.329261 0.140981 0.397422 0 0 0 0 0 255
-0.601591 -0.52064 2.06317 0 0 0 0 255 0
-0.62527 -0.189073 2.16882 0 0 0 0 255 0
-0.6446 0.131973 2.25819 0 0 0 0 255 0
-0.650387 0.247595 2.30147 0 0 0 0 255 0
-0.773097 0.0440884 2.07039 0 0 0 0 255 0
-0.634094 0.00560203 1.78395 0 0 0 0 255 0
-0.492901 0.0261377 1.59045 0 0 0 0 255 0
-0.48003 0.0292899 1.56819 0 0 0 0 255 0
-0.475801 -0.016875 2.27631 0 0 0 0 255 0
-0.447876 -0.215251 2.10631 0 0 0 0 255 0
-0.490368 -0.28369 1.82433 0 0 0 0 255 0
-0.505516 -0.307013 1.73459 0 0 0 0 255 0
-0.655751 -0.493858 1.96768 0 0 0 0 255 0
-0.689208 -0.785768 1.9696 0 0 0 0 255 0
-0.697844 -1.20666 1.9689 0 0 0 0 255 0
-0.61937 -1.24336 1.85311 0 0 0 0 255 0
-0.525547 -0.528133 2.08198 0 0 0 0 255 0
-0.550321 -0.804428 2.02391 0 0 0 0 255 0
-0.552476 -1.24536 2.02287 0 0 0 0 255 0
-0.474268 -1.28022 1.90741 0 0 0 0 255 0
-0.640492 0.0530469 2.23848 0 0 0 0 255 0
-0.442781 0.0601714 1.4933 0 0 0 0 255 0
-0.442895 0.0348986 1.57846 0 0 0 0 255 0
-0.510742 -0.296363 1.70908 0 0 0 0 255 0
-0.507084 -0.313469 1.71335 0 0 0 0 255 0
