ply
format ascii 1.0
element vertex 29
property float x
property float y
property float z
property float nx
property float ny
property float nz
property uchar red
property uchar green
property uchar blue
end_header
-0.393076 0.282558 0.459223 0 0 0 0 0 255
0.173857 0.362373 0.461803 0 0 0 0 0 255
-0.379864 0.0548544 0.152839 0 0 0 0 0 255
0.206173 0.00750181 0.347477 0 0 0 0 0 255
-0.630354 -0.376446 2.24922 0 0 0 0 255 0
-0.634638 -0.137298 2.31419 0 0 0 0 255 0
-0.637575 0.0973549 2.36961 0 0 0 0 255 0
-0.625894 0.210023 2.40402 0 0 0 0 255 0
-0.755261 0.0781627 2.25248 0 0 0 0 255 0
-0.673816 0.00786394 2.03016 0 0 0 0 255 0
-0.585631 0.0152414 1.84622 0 0 0 0 255 0
-0.500768 -0.00104772 1.697 0 0 0 0 255 0
-0.498345 -0.0461276 2.49279 0 0 0 0 255 0
-0.445595 -0.225905 2.54909 0 0 0 0 255 0
-0.404315 -0.368737 2.63064 0 0 0 0 255 0
-0.391051 -0.416582 2.66063 0 0 0 0 255 0
-0.669314 -0.344911 2.15882 0 0 0 0 255 0
-0.720867 -0.641054 2.08723 0 0 0 0 255 0
-0.840524 -0.900187 2.01901 0 0 0 0 255 0
-0.77825 -0.822822 1.9999 0 0 0 0 255 0
-0.581116 -0.39415 2.28958 0 0 0 0 255 0
-0.514956 -0.672584 2.15193 0 0 0 0 255 0
-0.683422 -0.904395 2.08839 0 0 0 0 255 0
-0.596128 -0.81757 2.10114 0 0 0 0 255 0
-0.637194 0.0393084 2.35757 0 0 0 0 255 0
-0.480113 0.0328233 1.64467 0 0 0 0 255 0
-0.468238 0.0125358 1.7114 0 0 0 0 255 0
-0.391066 -0.424485 2.63854 0 0 0 0 255 0
-0.391507 -0.412062 2.6517 0 0 0 0 255 0
