ply
format ascii 1.0
element vertex 29
property float x
property float y
property float z
property float nx
property float ny
property float nz
property uchar red
property uchar green
property uchar blue
end_header
-0.332434 0.728783 0.255504 0 0 0 0 0 255
0.167008 0.624615 0.593118 0 0 0 0 0 255
-0.272264 0.490351 0.0842305 0 0 0 0 0 255
0.203424 0.0742062 0.536877 0 0 0 0 0 255
-0.78171 -0.383049 1.98891 0 0 0 0 255 0
-0.830663 -0.116727 2.08523 0 0 0 0 255 0
-0.874501 0.141427 2.1693 0 0 0 0 255 0
-0.859593 0.270934 2.19068 0 0 0 0 255 0
-0.952216 0.10155 1.97745 0 0 0 0 255 0
-0.835089 -0.0968695 1.7101 0 0 0 0 255 0
-0.65649 -0.0542181 1.51771 0 0 0 0 255 0
-0.638068 -0.00894787 1.48893 0 0 0 0 255 0
-0.702374 0.0109808 2.21346 0 0 0 0 255 0
-0.61581 -0.193209 2.07472 0 0 0 0 255 0
-0.649116 0.0430495 1.98414 0 0 0 0 255 0
-0.661336 0.121484 1.95769 0 0 0 0 255 0
-0.8156 -0.342291 1.88053 0 0 0 0 255 0
-0.985828 -0.534993 1.85545 0 0 0 0 255 0
-0.83095 -0.841236 1.89478 0 0 0 0 255 0
-0.714018 -0.838914 1.81295 0 0 0 0 255 0
-0.721545 -0.411039 2.03038 0 0 0 0 255 0
-0.749022 -0.731127 1.92931 0 0 0 0 255 0
-0.754912 -1.11884 1.90599 0 0 0 0 255 0
-0.665448 -1.15414 1.80817 0 0 0 0 255 0
-0.864459 0.0778149 2.15044 0 0 0 0 255 0
-0.582382 0.0348946 1.41 0 0 0 0 255 0
-0.642046 0.0463591 1.49034 0 0 0 0 255 0
-0.689187 0.0871994 1.91063 0 0 0 0 255 0
-0.610398 0.0752079 1.94861 0 0 0 0 255 0
