ply
format ascii 1.0
element vertex 400
property float x
property float y
property float z
property float nx
property float ny
property float nz
property uchar red
property uchar green
property uchar blue
end_header
-0.85646 1.305 0.441521 0 0 0 255 0 0
-0.876147 1.20702 0.438075 0 0 0 255 0 0
-0.895834 1.10904 0.434628 0 0 0 255 0 0
-0.915521 1.01106 0.431182 0 0 0 255 0 0
-0.935209 0.913074 0.427736 0 0 0 255 0 0
-0.954896 0.815092 0.42429 0 0 0 255 0 0
-0.974583 0.71711 0.420844 0 0 0 255 0 0
-0.99427 0.619127 0.417397 0 0 0 255 0 0
-1.01396 0.521145 0.413951 0 0 0 255 0 0
-1.03364 0.423163 0.410505 0 0 0 255 0 0
-1.05333 0.32518 0.407059 0 0 0 255 0 0
-1.07302 0.227198 0.403613 0 0 0 255 0 0
-1.09271 0.129216 0.400166 0 0 0 255 0 0
-1.11239 0.0312333 0.39672 0 0 0 255 0 0
-1.13208 -0.0667491 0.393274 0 0 0 255 0 0
-1.15177 -0.164731 0.389828 0 0 0 255 0 0
-1.17145 -0.262714 0.386381 0 0 0 255 0 0
-1.19114 -0.360696 0.382935 0 0 0 255 0 0
-1.21083 -0.458679 0.379489 0 0 0 255 0 0
-1.23052 -0.556661 0.376043 0 0 0 255 0 0
-0.758454 1.28524 0.44355 0 0 0 255 0 0
-0.778141 1.18726 0.440104 0 0 0 255 0 0
-0.797828 1.08928 0.436658 0 0 0 255 0 0
-0.817515 0.991293 0.433212 0 0 0 255 0 0
-0.837202 0.893311 0.429765 0 0 0 255 0 0
-0.856889 0.795329 0.426319 0 0 0 255 0 0
-0.876576 0.697346 0.422873 0 0 0 255 0 0
-0.896263 0.599364 0.419427 0 0 0 255 0 0
-0.91595 0.501382 0.415981 0 0 0 255 0 0
-0.935637 0.403399 0.412534 0 0 0 255 0 0
-0.955325 0.305417 0.409088 0 0 0 255 0 0
-0.975012 0.207435 0.405642 0 0 0 255 0 0
-0.994699 0.109452 0.402196 0 0 0 255 0 0
-1.01439 0.0114699 0.39875 0 0 0 255 0 0
-1.03407 -0.0865124 0.395303 0 0 0 255 0 0
-1.05376 -0.184495 0.391857 0 0 0 255 0 0
-1.07345 -0.282477 0.388411 0 0 0 255 0 0
-1.09313 -0.380459 0.384965 0 0 0 255 0 0
-1.11282 -0.478442 0.381518 0 0 0 255 0 0
-1.13251 -0.576424 0.378072 0 0 0 255 0 0
-0.660447 1.26548 0.44558 0 0 0 255 0 0
-0.680134 1.16749 0.442134 0 0 0 255 0 0
-0.699821 1.06951 0.438687 0 0 0 255 0 0
-0.719508 0.97153 0.435241 0 0 0 255 0 0
-0.739195 0.873548 0.431795 0 0 0 255 0 0
-0.758882 0.775565 0.428349 0 0 0 255 0 0
-0.77857 0.677583 0.424902 0 0 0 255 0 0
-0.798257 0.579601 0.421456 0 0 0 255 0 0
-0.817944 0.481618 0.41801 0 0 0 255 0 0
-0.837631 0.383636 0.414564 0 0 0 255 0 0
-0.857318 0.285654 0.411118 0 0 0 255 0 0
-0.877005 0.187671 0.407671 0 0 0 255 0 0
-0.896692 0.0896889 0.404225 0 0 0 255 0 0
-0.916379 -0.00829341 0.400779 0 0 0 255 0 0
-0.936066 -0.106276 0.397333 0 0 0 255 0 0
-0.955753 -0.204258 0.393886 0 0 0 255 0 0
-0.975441 -0.30224 0.39044 0 0 0 255 0 0
-0.995128 -0.400223 0.386994 0 0 0 255 0 0
-1.01481 -0.498205 0.383548 0 0 0 255 0 0
-1.0345 -0.596188 0.380102 0 0 0 255 0 0
-0.56244 1.24571 0.447609 0 0 0 255 0 0
-0.582127 1.14773 0.444163 0 0 0 255 0 0
-0.601815 1.04975 0.440717 0 0 0 255 0 0
-0.621502 0.951767 0.43727 0 0 0 255 0 0
-0.641189 0.853784 0.433824 0 0 0 255 0 0
-0.660876 0.755802 0.430378 0 0 0 255 0 0
-0.680563 0.65782 0.426932 0 0 0 255 0 0
-0.70025 0.559837 0.423486 0 0 0 255 0 0
-0.719937 0.461855 0.420039 0 0 0 255 0 0
-0.739624 0.363873 0.416593 0 0 0 255 0 0
-0.759311 0.26589 0.413147 0 0 0 255 0 0
-0.778998 0.167908 0.409701 0 0 0 255 0 0
-0.798686 0.0699256 0.406255 0 0 0 255 0 0
-0.818373 -0.0280568 0.402808 0 0 0 255 0 0
-0.83806 -0.126039 0.399362 0 0 0 255 0 0
-0.857747 -0.224021 0.395916 0 0 0 255 0 0
-0.877434 -0.322004 0.39247 0 0 0 255 0 0
-0.897121 -0.419986 0.389023 0 0 0 255 0 0
-0.916808 -0.517969 0.385577 0 0 0 255 0 0
-0.936495 -0.615951 0.382131 0 0 0 255 0 0
-0.464434 1.22595 0.449639 0 0 0 255 0 0
-0.484121 1.12797 0.446192 0 0 0 255 0 0
-0.503808 1.02999 0.442746 0 0 0 255 0 0
-0.523495 0.932003 0.4393 0 0 0 255 0 0
-0.543182 0.834021 0.435854 0 0 0 255 0 0
-0.562869 0.736039 0.432407 0 0 0 255 0 0
-0.582556 0.638056 0.428961 0 0 0 255 0 0
-0.602243 0.540074 0.425515 0 0 0 255 0 0
-0.621931 0.442092 0.422069 0 0 0 255 0 0
-0.641618 0.344109 0.418623 0 0 0 255 0 0
-0.661305 0.246127 0.415176 0 0 0 255 0 0
-0.680992 0.148145 0.41173 0 0 0 255 0 0
-0.700679 0.0501622 0.408284 0 0 0 255 0 0
-0.720366 -0.0478201 0.404838 0 0 0 255 0 0
-0.740053 -0.145802 0.401391 0 0 0 255 0 0
-0.75974 -0.243785 0.397945 0 0 0 255 0 0
-0.779427 -0.341767 0.394499 0 0 0 255 0 0
-0.799114 -0.43975 0.391053 0 0 0 255 0 0
-0.818802 -0.537732 0.387607 0 0 0 255 0 0
-0.838489 -0.635714 0.38416 0 0 0 255 0 0
-0.366427 1.20619 0.451668 0 0 0 255 0 0
-0.386114 1.1082 0.448222 0 0 0 255 0 0
-0.405801 1.01022 0.444775 0 0 0 255 0 0
-0.425488 0.91224 0.441329 0 0 0 255 0 0
-0.445176 0.814258 0.437883 0 0 0 255 0 0
-0.464863 0.716275 0.434437 0 0 0 255 0 0
-0.48455 0.618293 0.430991 0 0 0 255 0 0
-0.504237 0.520311 0.427544 0 0 0 255 0 0
-0.523924 0.422328 0.424098 0 0 0 255 0 0
-0.543611 0.324346 0.420652 0 0 0 255 0 0
-0.563298 0.226364 0.417206 0 0 0 255 0 0
-0.582985 0.128381 0.41376 0 0 0 255 0 0
-0.602672 0.0303989 0.410313 0 0 0 255 0 0
-0.622359 -0.0675835 0.406867 0 0 0 255 0 0
-0.642047 -0.165566 0.403421 0 0 0 255 0 0
-0.661734 -0.263548 0.399975 0 0 0 255 0 0
-0.681421 -0.361531 0.396528 0 0 0 255 0 0
-0.701108 -0.459513 0.393082 0 0 0 255 0 0
-0.720795 -0.557495 0.389636 0 0 0 255 0 0
-0.740482 -0.655478 0.38619 0 0 0 255 0 0
-0.268421 1.18642 0.453697 0 0 0 255 0 0
-0.288108 1.08844 0.450251 0 0 0 255 0 0
-0.307795 0.990459 0.446805 0 0 0 255 0 0
-0.327482 0.892477 0.443359 0 0 0 255 0 0
-0.347169 0.794494 0.439912 0 0 0 255 0 0
-0.366856 0.696512 0.436466 0 0 0 255 0 0
-0.386543 0.59853 0.43302 0 0 0 255 0 0
-0.40623 0.500547 0.429574 0 0 0 255 0 0
-0.425917 0.402565 0.426128 0 0 0 255 0 0
-0.445604 0.304583 0.422681 0 0 0 255 0 0
-0.465292 0.2066 0.419235 0 0 0 255 0 0
-0.484979 0.108618 0.415789 0 0 0 255 0 0
-0.504666 0.0106355 0.412343 0 0 0 255 0 0
-0.524353 -0.0873468 0.408897 0 0 0 255 0 0
-0.54404 -0.185329 0.40545 0 0 0 255 0 0
-0.563727 -0.283311 0.402004 0 0 0 255 0 0
-0.583414 -0.381294 0.398558 0 0 0 255 0 0
-0.603101 -0.479276 0.395112 0 0 0 255 0 0
-0.622788 -0.577259 0.391665 0 0 0 255 0 0
-0.642475 -0.675241 0.388219 0 0 0 255 0 0
-0.170414 1.16666 0.455727 0 0 0 255 0 0
-0.190101 1.06868 0.452281 0 0 0 255 0 0
-0.209788 0.970696 0.448834 0 0 0 255 0 0
-0.229475 0.872713 0.445388 0 0 0 255 0 0
-0.249162 0.774731 0.441942 0 0 0 255 0 0
-0.268849 0.676749 0.438496 0 0 0 255 0 0
-0.288537 0.578766 0.435049 0 0 0 255 0 0
-0.308224 0.480784 0.431603 0 0 0 255 0 0
-0.327911 0.382802 0.428157 0 0 0 255 0 0
-0.347598 0.284819 0.424711 0 0 0 255 0 0
-0.367285 0.186837 0.421265 0 0 0 255 0 0
-0.386972 0.0888546 0.417818 0 0 0 255 0 0
-0.406659 -0.00912781 0.414372 0 0 0 255 0 0
-0.426346 -0.10711 0.410926 0 0 0 255 0 0
-0.446033 -0.205093 0.40748 0 0 0 255 0 0
-0.46572 -0.303075 0.404033 0 0 0 255 0 0
-0.485408 -0.401057 0.400587 0 0 0 255 0 0
-0.505095 -0.49904 0.397141 0 0 0 255 0 0
-0.524782 -0.597022 0.393695 0 0 0 255 0 0
-0.544469 -0.695004 0.390249 0 0 0 255 0 0
-0.0724074 1.1469 0.457756 0 0 0 255 0 0
-0.0920945 1.04891 0.45431 0 0 0 255 0 0
-0.111782 0.950932 0.450864 0 0 0 255 0 0
-0.131469 0.85295 0.447417 0 0 0 255 0 0
-0.151156 0.754968 0.443971 0 0 0 255 0 0
-0.170843 0.656985 0.440525 0 0 0 255 0 0
-0.19053 0.559003 0.437079 0 0 0 255 0 0
-0.210217 0.461021 0.433633 0 0 0 255 0 0
-0.229904 0.363038 0.430186 0 0 0 255 0 0
-0.249591 0.265056 0.42674 0 0 0 255 0 0
-0.269278 0.167074 0.423294 0 0 0 255 0 0
-0.288965 0.0690912 0.419848 0 0 0 255 0 0
-0.308653 -0.0288911 0.416402 0 0 0 255 0 0
-0.32834 -0.126874 0.412955 0 0 0 255 0 0
-0.348027 -0.224856 0.409509 0 0 0 255 0 0
-0.367714 -0.322838 0.406063 0 0 0 255 0 0
-0.387401 -0.420821 0.402617 0 0 0 255 0 0
-0.407088 -0.518803 0.39917 0 0 0 255 0 0
-0.426775 -0.616785 0.395724 0 0 0 255 0 0
-0.446462 -0.714768 0.392278 0 0 0 255 0 0
0.0255992 1.12713 0.459786 0 0 0 255 0 0
0.00591213 1.02915 0.456339 0 0 0 255 0 0
-0.013775 0.931169 0.452893 0 0 0 255 0 0
-0.0334621 0.833187 0.449447 0 0 0 255 0 0
-0.0531492 0.735204 0.446001 0 0 0 255 0 0
-0.0728363 0.637222 0.442554 0 0 0 255 0 0
-0.0925234 0.53924 0.439108 0 0 0 255 0 0
-0.11221 0.441257 0.435662 0 0 0 255 0 0
-0.131898 0.343275 0.432216 0 0 0 255 0 0
-0.151585 0.245293 0.42877 0 0 0 255 0 0
-0.171272 0.14731 0.425323 0 0 0 255 0 0
-0.190959 0.0493279 0.421877 0 0 0 255 0 0
-0.210646 -0.0486545 0.418431 0 0 0 255 0 0
-0.230333 -0.146637 0.414985 0 0 0 255 0 0
-0.25002 -0.244619 0.411538 0 0 0 255 0 0
-0.269707 -0.342602 0.408092 0 0 0 255 0 0
-0.289394 -0.440584 0.404646 0 0 0 255 0 0
-0.309081 -0.538566 0.4012 0 0 0 255 0 0
-0.328769 -0.636549 0.397754 0 0 0 255 0 0
-0.348456 -0.734531 0.394307 0 0 0 255 0 0
0.123606 1.10737 0.461815 0 0 0 255 0 0
0.103919 1.00939 0.458369 0 0 0 255 0 0
0.0842316 0.911406 0.454922 0 0 0 255 0 0
0.0645445 0.813423 0.451476 0 0 0 255 0 0
0.0448574 0.715441 0.44803 0 0 0 255 0 0
0.0251703 0.617459 0.444584 0 0 0 255 0 0
0.00548321 0.519476 0.441138 0 0 0 255 0 0
-0.0142039 0.421494 0.437691 0 0 0 255 0 0
-0.033891 0.323512 0.434245 0 0 0 255 0 0
-0.0535781 0.225529 0.430799 0 0 0 255 0 0
-0.0732652 0.127547 0.427353 0 0 0 255 0 0
-0.0929523 0.0295645 0.423907 0 0 0 255 0 0
-0.112639 -0.0684178 0.42046 0 0 0 255 0 0
-0.132326 -0.1664 0.417014 0 0 0 255 0 0
-0.152014 -0.264383 0.413568 0 0 0 255 0 0
-0.171701 -0.362365 0.410122 0 0 0 255 0 0
-0.191388 -0.460347 0.406675 0 0 0 255 0 0
-0.211075 -0.55833 0.403229 0 0 0 255 0 0
-0.230762 -0.656312 0.399783 0 0 0 255 0 0
-0.250449 -0.754294 0.396337 0 0 0 255 0 0
0.221612 1.08761 0.463844 0 0 0 255 0 0
0.201925 0.989625 0.460398 0 0 0 255 0 0
0.182238 0.891642 0.456952 0 0 0 255 0 0
0.162551 0.79366 0.453506 0 0 0 255 0 0
0.142864 0.695678 0.450059 0 0 0 255 0 0
0.123177 0.597695 0.446613 0 0 0 255 0 0
0.10349 0.499713 0.443167 0 0 0 255 0 0
0.0838027 0.401731 0.439721 0 0 0 255 0 0
0.0641156 0.303748 0.436275 0 0 0 255 0 0
0.0444285 0.205766 0.432828 0 0 0 255 0 0
0.0247414 0.107784 0.429382 0 0 0 255 0 0
0.0050543 0.00980116 0.425936 0 0 0 255 0 0
-0.0146328 -0.0881812 0.42249 0 0 0 255 0 0
-0.0343199 -0.186164 0.419044 0 0 0 255 0 0
-0.054007 -0.284146 0.415597 0 0 0 255 0 0
-0.0736941 -0.382128 0.412151 0 0 0 255 0 0
-0.0933812 -0.480111 0.408705 0 0 0 255 0 0
-0.113068 -0.578093 0.405259 0 0 0 255 0 0
-0.132755 -0.676075 0.401812 0 0 0 255 0 0
-0.152443 -0.774058 0.398366 0 0 0 255 0 0
0.319619 1.06784 0.465874 0 0 0 255 0 0
0.299932 0.969861 0.462428 0 0 0 255 0 0
0.280245 0.871879 0.458981 0 0 0 255 0 0
0.260558 0.773897 0.455535 0 0 0 255 0 0
0.240871 0.675914 0.452089 0 0 0 255 0 0
0.221183 0.577932 0.448643 0 0 0 255 0 0
0.201496 0.47995 0.445196 0 0 0 255 0 0
0.181809 0.381967 0.44175 0 0 0 255 0 0
0.162122 0.283985 0.438304 0 0 0 255 0 0
0.142435 0.186003 0.434858 0 0 0 255 0 0
0.122748 0.0880202 0.431412 0 0 0 255 0 0
0.103061 -0.00996219 0.427965 0 0 0 255 0 0
0.0833738 -0.107945 0.424519 0 0 0 255 0 0
0.0636867 -0.205927 0.421073 0 0 0 255 0 0
0.0439996 -0.303909 0.417627 0 0 0 255 0 0
0.0243125 -0.401892 0.41418 0 0 0 255 0 0
0.00462539 -0.499874 0.410734 0 0 0 255 0 0
-0.0150617 -0.597856 0.407288 0 0 0 255 0 0
-0.0347488 -0.695839 0.403842 0 0 0 255 0 0
-0.0544359 -0.793821 0.400396 0 0 0 255 0 0
0.417626 1.04808 0.467903 0 0 0 255 0 0
0.397938 0.950098 0.464457 0 0 0 255 0 0
0.378251 0.852116 0.461011 0 0 0 255 0 0
0.358564 0.754133 0.457564 0 0 0 255 0 0
0.338877 0.656151 0.454118 0 0 0 255 0 0
0.31919 0.558169 0.450672 0 0 0 255 0 0
0.299503 0.460186 0.447226 0 0 0 255 0 0
0.279816 0.362204 0.44378 0 0 0 255 0 0
0.260129 0.264222 0.440333 0 0 0 255 0 0
0.240442 0.166239 0.436887 0 0 0 255 0 0
0.220755 0.0682568 0.433441 0 0 0 255 0 0
0.201067 -0.0297255 0.429995 0 0 0 255 0 0
0.18138 -0.127708 0.426549 0 0 0 255 0 0
0.161693 -0.22569 0.423102 0 0 0 255 0 0
0.142006 -0.323673 0.419656 0 0 0 255 0 0
0.122319 -0.421655 0.41621 0 0 0 255 0 0
0.102632 -0.519637 0.412764 0 0 0 255 0 0
0.0829449 -0.61762 0.409317 0 0 0 255 0 0
0.0632578 -0.715602 0.405871 0 0 0 255 0 0
0.0435707 -0.813584 0.402425 0 0 0 255 0 0
0.515632 1.02832 0.469933 0 0 0 255 0 0
0.495945 0.930335 0.466486 0 0 0 255 0 0
0.476258 0.832352 0.46304 0 0 0 255 0 0
0.456571 0.73437 0.459594 0 0 0 255 0 0
0.436884 0.636388 0.456148 0 0 0 255 0 0
0.417197 0.538405 0.452701 0 0 0 255 0 0
0.39751 0.440423 0.449255 0 0 0 255 0 0
0.377822 0.342441 0.445809 0 0 0 255 0 0
0.358135 0.244458 0.442363 0 0 0 255 0 0
0.338448 0.146476 0.438917 0 0 0 255 0 0
0.318761 0.0484935 0.43547 0 0 0 255 0 0
0.299074 -0.0494889 0.432024 0 0 0 255 0 0
0.279387 -0.147471 0.428578 0 0 0 255 0 0
0.2597 -0.245454 0.425132 0 0 0 255 0 0
0.240013 -0.343436 0.421685 0 0 0 255 0 0
0.220326 -0.441418 0.418239 0 0 0 255 0 0
0.200639 -0.539401 0.414793 0 0 0 255 0 0
0.180951 -0.637383 0.411347 0 0 0 255 0 0
0.161264 -0.735365 0.407901 0 0 0 255 0 0
0.141577 -0.833348 0.404454 0 0 0 255 0 0
0.613639 1.00855 0.471962 0 0 0 255 0 0
0.593952 0.910571 0.468516 0 0 0 255 0 0
0.574265 0.812589 0.46507 0 0 0 255 0 0
0.554577 0.714607 0.461623 0 0 0 255 0 0
0.53489 0.616624 0.458177 0 0 0 255 0 0
0.515203 0.518642 0.454731 0 0 0 255 0 0
0.495516 0.42066 0.451285 0 0 0 255 0 0
0.475829 0.322677 0.447838 0 0 0 255 0 0
0.456142 0.224695 0.444392 0 0 0 255 0 0
0.436455 0.126712 0.440946 0 0 0 255 0 0
0.416768 0.0287301 0.4375 0 0 0 255 0 0
0.397081 -0.0692522 0.434054 0 0 0 255 0 0
0.377394 -0.167235 0.430607 0 0 0 255 0 0
0.357706 -0.265217 0.427161 0 0 0 255 0 0
0.338019 -0.363199 0.423715 0 0 0 255 0 0
0.318332 -0.461182 0.420269 0 0 0 255 0 0
0.298645 -0.559164 0.416822 0 0 0 255 0 0
0.278958 -0.657146 0.413376 0 0 0 255 0 0
0.259271 -0.755129 0.40993 0 0 0 255 0 0
0.239584 -0.853111 0.406484 0 0 0 255 0 0
0.711645 0.98879 0.473991 0 0 0 255 0 0
0.691958 0.890808 0.470545 0 0 0 255 0 0
0.672271 0.792826 0.467099 0 0 0 255 0 0
0.652584 0.694843 0.463653 0 0 0 255 0 0
0.632897 0.596861 0.460206 0 0 0 255 0 0
0.61321 0.498879 0.45676 0 0 0 255 0 0
0.593523 0.400896 0.453314 0 0 0 255 0 0
0.573836 0.302914 0.449868 0 0 0 255 0 0
0.554149 0.204931 0.446422 0 0 0 255 0 0
0.534461 0.106949 0.442975 0 0 0 255 0 0
0.514774 0.00896677 0.439529 0 0 0 255 0 0
0.495087 -0.0890156 0.436083 0 0 0 255 0 0
0.4754 -0.186998 0.432637 0 0 0 255 0 0
0.455713 -0.28498 0.429191 0 0 0 255 0 0
0.436026 -0.382963 0.425744 0 0 0 255 0 0
0.416339 -0.480945 0.422298 0 0 0 255 0 0
0.396652 -0.578927 0.418852 0 0 0 255 0 0
0.376965 -0.67691 0.415406 0 0 0 255 0 0
0.357278 -0.774892 0.411959 0 0 0 255 0 0
0.33759 -0.872874 0.408513 0 0 0 255 0 0
0.809652 0.969027 0.476021 0 0 0 255 0 0
0.789965 0.871045 0.472575 0 0 0 255 0 0
0.770278 0.773062 0.469128 0 0 0 255 0 0
0.750591 0.67508 0.465682 0 0 0 255 0 0
0.730904 0.577098 0.462236 0 0 0 255 0 0
0.711216 0.479115 0.45879 0 0 0 255 0 0
0.691529 0.381133 0.455343 0 0 0 255 0 0
0.671842 0.28315 0.451897 0 0 0 255 0 0
0.652155 0.185168 0.448451 0 0 0 255 0 0
0.632468 0.0871858 0.445005 0 0 0 255 0 0
0.612781 -0.0107966 0.441559 0 0 0 255 0 0
0.593094 -0.108779 0.438112 0 0 0 255 0 0
0.573407 -0.206761 0.434666 0 0 0 255 0 0
0.55372 -0.304744 0.43122 0 0 0 255 0 0
0.534033 -0.402726 0.427774 0 0 0 255 0 0
0.514345 -0.500708 0.424327 0 0 0 255 0 0
0.494658 -0.598691 0.420881 0 0 0 255 0 0
0.474971 -0.696673 0.417435 0 0 0 255 0 0
0.455284 -0.794655 0.413989 0 0 0 255 0 0
0.435597 -0.892638 0.410543 0 0 0 255 0 0
0.907659 0.949264 0.47805 0 0 0 255 0 0
0.887971 0.851281 0.474604 0 0 0 255 0 0
0.868284 0.753299 0.471158 0 0 0 255 0 0
0.848597 0.655317 0.467711 0 0 0 255 0 0
0.82891 0.557334 0.464265 0 0 0 255 0 0
0.809223 0.459352 0.460819 0 0 0 255 0 0
0.789536 0.361369 0.457373 0 0 0 255 0 0
0.769849 0.263387 0.453927 0 0 0 255 0 0
0.750162 0.165405 0.45048 0 0 0 255 0 0
0.730475 0.0674224 0.447034 0 0 0 255 0 0
0.710788 -0.0305599 0.443588 0 0 0 255 0 0
0.6911 -0.128542 0.440142 0 0 0 255 0 0
0.671413 -0.226525 0.436696 0 0 0 255 0 0
0.651726 -0.324507 0.433249 0 0 0 255 0 0
0.632039 -0.422489 0.429803 0 0 0 255 0 0
0.612352 -0.520472 0.426357 0 0 0 255 0 0
0.592665 -0.618454 0.422911 0 0 0 255 0 0
0.572978 -0.716436 0.419464 0 0 0 255 0 0
0.553291 -0.814419 0.416018 0 0 0 255 0 0
0.533604 -0.912401 0.412572 0 0 0 255 0 0
1.00567 0.9295 0.48008 0 0 0 255 0 0
0.985978 0.831518 0.476633 0 0 0 255 0 0
0.966291 0.733536 0.473187 0 0 0 255 0 0
0.946604 0.635553 0.469741 0 0 0 255 0 0
0.926917 0.537571 0.466295 0 0 0 255 0 0
0.90723 0.439588 0.462848 0 0 0 255 0 0
0.887543 0.341606 0.459402 0 0 0 255 0 0
0.867855 0.243624 0.455956 0 0 0 255 0 0
0.848168 0.145641 0.45251 0 0 0 255 0 0
0.828481 0.0476591 0.449064 0 0 0 255 0 0
0.808794 -0.0503233 0.445617 0 0 0 255 0 0
0.789107 -0.148306 0.442171 0 0 0 255 0 0
0.76942 -0.246288 0.438725 0 0 0 255 0 0
0.749733 -0.34427 0.435279 0 0 0 255 0 0
0.730046 -0.442253 0.431832 0 0 0 255 0 0
0.710359 -0.540235 0.428386 0 0 0 255 0 0
0.690672 -0.638217 0.42494 0 0 0 255 0 0
0.670984 -0.7362 0.421494 0 0 0 255 0 0
0.651297 -0.834182 0.418048 0 0 0 255 0 0
0.63161 -0.932164 0.414601 0 0 0 255 0 0
