ply
format ascii 1.0
element vertex 400
property float x
property float y
property float z
property float nx
property float ny
property float nz
property uchar red
property uchar green
property uchar blue
end_header
-1.45965 -0.968581 -0.176926 0 0 0 255 0 0
-1.42558 -0.874567 -0.176926 0 0 0 255 0 0
-1.3915 -0.780553 -0.176926 0 0 0 255 0 0
-1.35742 -0.686538 -0.176926 0 0 0 255 0 0
-1.32334 -0.592524 -0.176926 0 0 0 255 0 0
-1.28926 -0.49851 -0.176926 0 0 0 255 0 0
-1.25518 -0.404496 -0.176926 0 0 0 255 0 0
-1.22111 -0.310482 -0.176926 0 0 0 255 0 0
-1.18703 -0.216467 -0.176926 0 0 0 255 0 0
-1.15295 -0.122453 -0.176926 0 0 0 255 0 0
-1.11887 -0.028439 -0.176926 0 0 0 255 0 0
-1.08479 0.0655752 -0.176926 0 0 0 255 0 0
-1.05071 0.159589 -0.176926 0 0 0 255 0 0
-1.01664 0.253604 -0.176926 0 0 0 255 0 0
-0.982558 0.347618 -0.176926 0 0 0 255 0 0
-0.94848 0.441632 -0.176926 0 0 0 255 0 0
-0.914402 0.535646 -0.176926 0 0 0 255 0 0
-0.880323 0.62966 -0.176926 0 0 0 255 0 0
-0.846245 0.723675 -0.176926 0 0 0 255 0 0
-0.812167 0.817689 -0.176926 0 0 0 255 0 0
-1.36564 -1.00266 -0.176926 0 0 0 255 0 0
-1.33156 -0.908645 -0.176926 0 0 0 255 0 0
-1.29748 -0.814631 -0.176926 0 0 0 255 0 0
-1.26341 -0.720617 -0.176926 0 0 0 255 0 0
-1.22933 -0.626602 -0.176926 0 0 0 255 0 0
-1.19525 -0.532588 -0.176926 0 0 0 255 0 0
-1.16117 -0.438574 -0.176926 0 0 0 255 0 0
-1.12709 -0.34456 -0.176926 0 0 0 255 0 0
-1.09301 -0.250546 -0.176926 0 0 0 255 0 0
-1.05894 -0.156532 -0.176926 0 0 0 255 0 0
-1.02486 -0.0625173 -0.176926 0 0 0 255 0 0
-0.990779 0.0314969 -0.176926 0 0 0 255 0 0
-0.956701 0.125511 -0.176926 0 0 0 255 0 0
-0.922622 0.219525 -0.176926 0 0 0 255 0 0
-0.888544 0.313539 -0.176926 0 0 0 255 0 0
-0.854466 0.407554 -0.176926 0 0 0 255 0 0
-0.820387 0.501568 -0.176926 0 0 0 255 0 0
-0.786309 0.595582 -0.176926 0 0 0 255 0 0
-0.752231 0.689596 -0.176926 0 0 0 255 0 0
-0.718152 0.78361 -0.176926 0 0 0 255 0 0
-1.27163 -1.03674 -0.176926 0 0 0 255 0 0
-1.23755 -0.942724 -0.176926 0 0 0 255 0 0
-1.20347 -0.848709 -0.176926 0 0 0 255 0 0
-1.16939 -0.754695 -0.176926 0 0 0 255 0 0
-1.13531 -0.660681 -0.176926 0 0 0 255 0 0
-1.10123 -0.566667 -0.176926 0 0 0 255 0 0
-1.06716 -0.472652 -0.176926 0 0 0 255 0 0
-1.03308 -0.378638 -0.176926 0 0 0 255 0 0
-0.999 -0.284624 -0.176926 0 0 0 255 0 0
-0.964921 -0.19061 -0.176926 0 0 0 255 0 0
-0.930843 -0.0965957 -0.176926 0 0 0 255 0 0
-0.896765 -0.00258148 -0.176926 0 0 0 255 0 0
-0.862687 0.0914327 -0.176926 0 0 0 255 0 0
-0.828608 0.185447 -0.176926 0 0 0 255 0 0
-0.79453 0.279461 -0.176926 0 0 0 255 0 0
-0.760451 0.373475 -0.176926 0 0 0 255 0 0
-0.726373 0.46749 -0.176926 0 0 0 255 0 0
-0.692295 0.561504 -0.176926 0 0 0 255 0 0
-0.658216 0.655518 -0.176926 0 0 0 255 0 0
-0.624138 0.749532 -0.176926 0 0 0 255 0 0
-1.17761 -1.07082 -0.176926 0 0 0 255 0 0
-1.14353 -0.976802 -0.176926 0 0 0 255 0 0
-1.10946 -0.882788 -0.176926 0 0 0 255 0 0
-1.07538 -0.788773 -0.176926 0 0 0 255 0 0
-1.0413 -0.694759 -0.176926 0 0 0 255 0 0
-1.00722 -0.600745 -0.176926 0 0 0 255 0 0
-0.973142 -0.506731 -0.176926 0 0 0 255 0 0
-0.939064 -0.412717 -0.176926 0 0 0 255 0 0
-0.904986 -0.318702 -0.176926 0 0 0 255 0 0
-0.870907 -0.224688 -0.176926 0 0 0 255 0 0
-0.836829 -0.130674 -0.176926 0 0 0 255 0 0
-0.80275 -0.0366598 -0.176926 0 0 0 255 0 0
-0.768672 0.0573544 -0.176926 0 0 0 255 0 0
-0.734594 0.151369 -0.176926 0 0 0 255 0 0
-0.700516 0.245383 -0.176926 0 0 0 255 0 0
-0.666437 0.339397 -0.176926 0 0 0 255 0 0
-0.632359 0.433411 -0.176926 0 0 0 255 0 0
-0.59828 0.527425 -0.176926 0 0 0 255 0 0
-0.564202 0.62144 -0.176926 0 0 0 255 0 0
-0.530124 0.715454 -0.176926 0 0 0 255 0 0
-1.0836 -1.10489 -0.176926 0 0 0 255 0 0
-1.04952 -1.01088 -0.176926 0 0 0 255 0 0
-1.01544 -0.916866 -0.176926 0 0 0 255 0 0
-0.981363 -0.822852 -0.176926 0 0 0 255 0 0
-0.947285 -0.728837 -0.176926 0 0 0 255 0 0
-0.913206 -0.634823 -0.176926 0 0 0 255 0 0
-0.879128 -0.540809 -0.176926 0 0 0 255 0 0
-0.84505 -0.446795 -0.176926 0 0 0 255 0 0
-0.810971 -0.352781 -0.176926 0 0 0 255 0 0
-0.776893 -0.258767 -0.176926 0 0 0 255 0 0
-0.742815 -0.164752 -0.176926 0 0 0 255 0 0
-0.708736 -0.0707382 -0.176926 0 0 0 255 0 0
-0.674658 0.023276 -0.176926 0 0 0 255 0 0
-0.64058 0.11729 -0.176926 0 0 0 255 0 0
-0.606501 0.211304 -0.176926 0 0 0 255 0 0
-0.572423 0.305319 -0.176926 0 0 0 255 0 0
-0.538345 0.399333 -0.176926 0 0 0 255 0 0
-0.504266 0.493347 -0.176926 0 0 0 255 0 0
-0.470188 0.587361 -0.176926 0 0 0 255 0 0
-0.43611 0.681376 -0.176926 0 0 0 255 0 0
-0.989584 -1.13897 -0.176926 0 0 0 255 0 0
-0.955505 -1.04496 -0.176926 0 0 0 255 0 0
-0.921427 -0.950944 -0.176926 0 0 0 255 0 0
-0.887349 -0.85693 -0.176926 0 0 0 255 0 0
-0.85327 -0.762916 -0.176926 0 0 0 255 0 0
-0.819192 -0.668902 -0.176926 0 0 0 255 0 0
-0.785114 -0.574887 -0.176926 0 0 0 255 0 0
-0.751035 -0.480873 -0.176926 0 0 0 255 0 0
-0.716957 -0.386859 -0.176926 0 0 0 255 0 0
-0.682879 -0.292845 -0.176926 0 0 0 255 0 0
-0.6488 -0.198831 -0.176926 0 0 0 255 0 0
-0.614722 -0.104816 -0.176926 0 0 0 255 0 0
-0.580644 -0.0108023 -0.176926 0 0 0 255 0 0
-0.546566 0.0832119 -0.176926 0 0 0 255 0 0
-0.512487 0.177226 -0.176926 0 0 0 255 0 0
-0.478409 0.27124 -0.176926 0 0 0 255 0 0
-0.44433 0.365254 -0.176926 0 0 0 255 0 0
-0.410252 0.459269 -0.176926 0 0 0 255 0 0
-0.376174 0.553283 -0.176926 0 0 0 255 0 0
-0.342095 0.647297 -0.176926 0 0 0 255 0 0
-0.89557 -1.17305 -0.176926 0 0 0 255 0 0
-0.861491 -1.07904 -0.176926 0 0 0 255 0 0
-0.827413 -0.985023 -0.176926 0 0 0 255 0 0
-0.793335 -0.891008 -0.176926 0 0 0 255 0 0
-0.759256 -0.796994 -0.176926 0 0 0 255 0 0
-0.725178 -0.70298 -0.176926 0 0 0 255 0 0
-0.6911 -0.608966 -0.176926 0 0 0 255 0 0
-0.657021 -0.514952 -0.176926 0 0 0 255 0 0
-0.622943 -0.420937 -0.176926 0 0 0 255 0 0
-0.588865 -0.326923 -0.176926 0 0 0 255 0 0
-0.554786 -0.232909 -0.176926 0 0 0 255 0 0
-0.520708 -0.138895 -0.176926 0 0 0 255 0 0
-0.48663 -0.0448806 -0.176926 0 0 0 255 0 0
-0.452551 0.0491336 -0.176926 0 0 0 255 0 0
-0.418473 0.143148 -0.176926 0 0 0 255 0 0
-0.384395 0.237162 -0.176926 0 0 0 255 0 0
-0.350316 0.331176 -0.176926 0 0 0 255 0 0
-0.316238 0.42519 -0.176926 0 0 0 255 0 0
-0.28216 0.519205 -0.176926 0 0 0 255 0 0
-0.248081 0.613219 -0.176926 0 0 0 255 0 0
-0.801555 -1.20713 -0.176926 0 0 0 255 0 0
-0.767477 -1.11312 -0.176926 0 0 0 255 0 0
-0.733399 -1.0191 -0.176926 0 0 0 255 0 0
-0.69932 -0.925087 -0.176926 0 0 0 255 0 0
-0.665242 -0.831073 -0.176926 0 0 0 255 0 0
-0.631164 -0.737058 -0.176926 0 0 0 255 0 0
-0.597085 -0.643044 -0.176926 0 0 0 255 0 0
-0.563007 -0.54903 -0.176926 0 0 0 255 0 0
-0.528929 -0.455016 -0.176926 0 0 0 255 0 0
-0.49485 -0.361002 -0.176926 0 0 0 255 0 0
-0.460772 -0.266987 -0.176926 0 0 0 255 0 0
-0.426694 -0.172973 -0.176926 0 0 0 255 0 0
-0.392615 -0.0789589 -0.176926 0 0 0 255 0 0
-0.358537 0.0150552 -0.176926 0 0 0 255 0 0
-0.324459 0.109069 -0.176926 0 0 0 255 0 0
-0.29038 0.203084 -0.176926 0 0 0 255 0 0
-0.256302 0.297098 -0.176926 0 0 0 255 0 0
-0.222224 0.391112 -0.176926 0 0 0 255 0 0
-0.188145 0.485126 -0.176926 0 0 0 255 0 0
-0.154067 0.57914 -0.176926 0 0 0 255 0 0
-0.707541 -1.24121 -0.176926 0 0 0 255 0 0
-0.673463 -1.14719 -0.176926 0 0 0 255 0 0
-0.639385 -1.05318 -0.176926 0 0 0 255 0 0
-0.605306 -0.959165 -0.176926 0 0 0 255 0 0
-0.571228 -0.865151 -0.176926 0 0 0 255 0 0
-0.537149 -0.771137 -0.176926 0 0 0 255 0 0
-0.503071 -0.677122 -0.176926 0 0 0 255 0 0
-0.468993 -0.583108 -0.176926 0 0 0 255 0 0
-0.434914 -0.489094 -0.176926 0 0 0 255 0 0
-0.400836 -0.39508 -0.176926 0 0 0 255 0 0
-0.366758 -0.301066 -0.176926 0 0 0 255 0 0
-0.33268 -0.207051 -0.176926 0 0 0 255 0 0
-0.298601 -0.113037 -0.176926 0 0 0 255 0 0
-0.264523 -0.0190231 -0.176926 0 0 0 255 0 0
-0.230445 0.0749911 -0.176926 0 0 0 255 0 0
-0.196366 0.169005 -0.176926 0 0 0 255 0 0
-0.162288 0.26302 -0.176926 0 0 0 255 0 0
-0.12821 0.357034 -0.176926 0 0 0 255 0 0
-0.0941312 0.451048 -0.176926 0 0 0 255 0 0
-0.0600528 0.545062 -0.176926 0 0 0 255 0 0
-0.613527 -1.27529 -0.176926 0 0 0 255 0 0
-0.579449 -1.18127 -0.176926 0 0 0 255 0 0
-0.54537 -1.08726 -0.176926 0 0 0 255 0 0
-0.511292 -0.993243 -0.176926 0 0 0 255 0 0
-0.477214 -0.899229 -0.176926 0 0 0 255 0 0
-0.443135 -0.805215 -0.176926 0 0 0 255 0 0
-0.409057 -0.711201 -0.176926 0 0 0 255 0 0
-0.374979 -0.617187 -0.176926 0 0 0 255 0 0
-0.3409 -0.523172 -0.176926 0 0 0 255 0 0
-0.306822 -0.429158 -0.176926 0 0 0 255 0 0
-0.272744 -0.335144 -0.176926 0 0 0 255 0 0
-0.238665 -0.24113 -0.176926 0 0 0 255 0 0
-0.204587 -0.147116 -0.176926 0 0 0 255 0 0
-0.170509 -0.0531014 -0.176926 0 0 0 255 0 0
-0.13643 0.0409128 -0.176926 0 0 0 255 0 0
-0.102352 0.134927 -0.176926 0 0 0 255 0 0
-0.0682737 0.228941 -0.176926 0 0 0 255 0 0
-0.0341953 0.322955 -0.176926 0 0 0 255 0 0
-0.000116958 0.41697 -0.176926 0 0 0 255 0 0
0.0339614 0.510984 -0.176926 0 0 0 255 0 0
-0.519513 -1.30936 -0.176926 0 0 0 255 0 0
-0.485434 -1.21535 -0.176926 0 0 0 255 0 0
-0.451356 -1.12134 -0.176926 0 0 0 255 0 0
-0.417278 -1.02732 -0.176926 0 0 0 255 0 0
-0.383199 -0.933308 -0.176926 0 0 0 255 0 0
-0.349121 -0.839293 -0.176926 0 0 0 255 0 0
-0.315043 -0.745279 -0.176926 0 0 0 255 0 0
-0.280964 -0.651265 -0.176926 0 0 0 255 0 0
-0.246886 -0.557251 -0.176926 0 0 0 255 0 0
-0.212808 -0.463237 -0.176926 0 0 0 255 0 0
-0.178729 -0.369222 -0.176926 0 0 0 255 0 0
-0.144651 -0.275208 -0.176926 0 0 0 255 0 0
-0.110573 -0.181194 -0.176926 0 0 0 255 0 0
-0.0764944 -0.0871798 -0.176926 0 0 0 255 0 0
-0.0424161 0.00683445 -0.176926 0 0 0 255 0 0
-0.00833779 0.100849 -0.176926 0 0 0 255 0 0
0.0257405 0.194863 -0.176926 0 0 0 255 0 0
0.0598189 0.288877 -0.176926 0 0 0 255 0 0
0.0938972 0.382891 -0.176926 0 0 0 255 0 0
0.127976 0.476906 -0.176926 0 0 0 255 0 0
-0.425499 -1.34344 -0.176926 0 0 0 255 0 0
-0.39142 -1.24943 -0.176926 0 0 0 255 0 0
-0.357342 -1.15541 -0.176926 0 0 0 255 0 0
-0.323264 -1.0614 -0.176926 0 0 0 255 0 0
-0.289185 -0.967386 -0.176926 0 0 0 255 0 0
-0.255107 -0.873372 -0.176926 0 0 0 255 0 0
-0.221029 -0.779357 -0.176926 0 0 0 255 0 0
-0.18695 -0.685343 -0.176926 0 0 0 255 0 0
-0.152872 -0.591329 -0.176926 0 0 0 255 0 0
-0.118794 -0.497315 -0.176926 0 0 0 255 0 0
-0.0847152 -0.403301 -0.176926 0 0 0 255 0 0
-0.0506369 -0.309286 -0.176926 0 0 0 255 0 0
-0.0165586 -0.215272 -0.176926 0 0 0 255 0 0
0.0175198 -0.121258 -0.176926 0 0 0 255 0 0
0.0515981 -0.0272439 -0.176926 0 0 0 255 0 0
0.0856764 0.0667703 -0.176926 0 0 0 255 0 0
0.119755 0.160785 -0.176926 0 0 0 255 0 0
0.153833 0.254799 -0.176926 0 0 0 255 0 0
0.187911 0.348813 -0.176926 0 0 0 255 0 0
0.22199 0.442827 -0.176926 0 0 0 255 0 0
-0.331484 -1.37752 -0.176926 0 0 0 255 0 0
-0.297406 -1.28351 -0.176926 0 0 0 255 0 0
-0.263328 -1.18949 -0.176926 0 0 0 255 0 0
-0.229249 -1.09548 -0.176926 0 0 0 255 0 0
-0.195171 -1.00146 -0.176926 0 0 0 255 0 0
-0.161093 -0.90745 -0.176926 0 0 0 255 0 0
-0.127014 -0.813436 -0.176926 0 0 0 255 0 0
-0.092936 -0.719422 -0.176926 0 0 0 255 0 0
-0.0588577 -0.625407 -0.176926 0 0 0 255 0 0
-0.0247793 -0.531393 -0.176926 0 0 0 255 0 0
0.00929899 -0.437379 -0.176926 0 0 0 255 0 0
0.0433773 -0.343365 -0.176926 0 0 0 255 0 0
0.0774557 -0.249351 -0.176926 0 0 0 255 0 0
0.111534 -0.155336 -0.176926 0 0 0 255 0 0
0.145612 -0.0613222 -0.176926 0 0 0 255 0 0
0.179691 0.032692 -0.176926 0 0 0 255 0 0
0.213769 0.126706 -0.176926 0 0 0 255 0 0
0.247847 0.22072 -0.176926 0 0 0 255 0 0
0.281926 0.314735 -0.176926 0 0 0 255 0 0
0.316004 0.408749 -0.176926 0 0 0 255 0 0
-0.23747 -1.4116 -0.176926 0 0 0 255 0 0
-0.203392 -1.31759 -0.176926 0 0 0 255 0 0
-0.169313 -1.22357 -0.176926 0 0 0 255 0 0
-0.135235 -1.12956 -0.176926 0 0 0 255 0 0
-0.101157 -1.03554 -0.176926 0 0 0 255 0 0
-0.0670785 -0.941528 -0.176926 0 0 0 255 0 0
-0.0330001 -0.847514 -0.176926 0 0 0 255 0 0
0.00107818 -0.7535 -0.176926 0 0 0 255 0 0
0.0351565 -0.659486 -0.176926 0 0 0 255 0 0
0.0692348 -0.565472 -0.176926 0 0 0 255 0 0
0.103313 -0.471457 -0.176926 0 0 0 255 0 0
0.137392 -0.377443 -0.176926 0 0 0 255 0 0
0.17147 -0.283429 -0.176926 0 0 0 255 0 0
0.205548 -0.189415 -0.176926 0 0 0 255 0 0
0.239626 -0.0954005 -0.176926 0 0 0 255 0 0
0.273705 -0.00138633 -0.176926 0 0 0 255 0 0
0.307783 0.0926279 -0.176926 0 0 0 255 0 0
0.341861 0.186642 -0.176926 0 0 0 255 0 0
0.37594 0.280656 -0.176926 0 0 0 255 0 0
0.410018 0.374671 -0.176926 0 0 0 255 0 0
-0.143456 -1.44568 -0.176926 0 0 0 255 0 0
-0.109378 -1.35166 -0.176926 0 0 0 255 0 0
-0.0752993 -1.25765 -0.176926 0 0 0 255 0 0
-0.0412209 -1.16364 -0.176926 0 0 0 255 0 0
-0.00714257 -1.06962 -0.176926 0 0 0 255 0 0
0.0269358 -0.975607 -0.176926 0 0 0 255 0 0
0.0610141 -0.881592 -0.176926 0 0 0 255 0 0
0.0950924 -0.787578 -0.176926 0 0 0 255 0 0
0.129171 -0.693564 -0.176926 0 0 0 255 0 0
0.163249 -0.59955 -0.176926 0 0 0 255 0 0
0.197327 -0.505536 -0.176926 0 0 0 255 0 0
0.231406 -0.411521 -0.176926 0 0 0 255 0 0
0.265484 -0.317507 -0.176926 0 0 0 255 0 0
0.299562 -0.223493 -0.176926 0 0 0 255 0 0
0.333641 -0.129479 -0.176926 0 0 0 255 0 0
0.367719 -0.0354647 -0.176926 0 0 0 255 0 0
0.401797 0.0585495 -0.176926 0 0 0 255 0 0
0.435876 0.152564 -0.176926 0 0 0 255 0 0
0.469954 0.246578 -0.176926 0 0 0 255 0 0
0.504032 0.340592 -0.176926 0 0 0 255 0 0
-0.0494418 -1.47976 -0.176926 0 0 0 255 0 0
-0.0153634 -1.38574 -0.176926 0 0 0 255 0 0
0.0187149 -1.29173 -0.176926 0 0 0 255 0 0
0.0527933 -1.19771 -0.176926 0 0 0 255 0 0
0.0868716 -1.1037 -0.176926 0 0 0 255 0 0
0.12095 -1.00968 -0.176926 0 0 0 255 0 0
0.155028 -0.915671 -0.176926 0 0 0 255 0 0
0.189107 -0.821657 -0.176926 0 0 0 255 0 0
0.223185 -0.727642 -0.176926 0 0 0 255 0 0
0.257263 -0.633628 -0.176926 0 0 0 255 0 0
0.291342 -0.539614 -0.176926 0 0 0 255 0 0
0.32542 -0.4456 -0.176926 0 0 0 255 0 0
0.359498 -0.351586 -0.176926 0 0 0 255 0 0
0.393577 -0.257571 -0.176926 0 0 0 255 0 0
0.427655 -0.163557 -0.176926 0 0 0 255 0 0
0.461733 -0.069543 -0.176926 0 0 0 255 0 0
0.495812 0.0244712 -0.176926 0 0 0 255 0 0
0.52989 0.118485 -0.176926 0 0 0 255 0 0
0.563968 0.2125 -0.176926 0 0 0 255 0 0
0.598047 0.306514 -0.176926 0 0 0 255 0 0
0.0445725 -1.51383 -0.176926 0 0 0 255 0 0
0.0786508 -1.41982 -0.176926 0 0 0 255 0 0
0.112729 -1.32581 -0.176926 0 0 0 255 0 0
0.146807 -1.23179 -0.176926 0 0 0 255 0 0
0.180886 -1.13778 -0.176926 0 0 0 255 0 0
0.214964 -1.04376 -0.176926 0 0 0 255 0 0
0.249042 -0.949749 -0.176926 0 0 0 255 0 0
0.283121 -0.855735 -0.176926 0 0 0 255 0 0
0.317199 -0.761721 -0.176926 0 0 0 255 0 0
0.351277 -0.667706 -0.176926 0 0 0 255 0 0
0.385356 -0.573692 -0.176926 0 0 0 255 0 0
0.419434 -0.479678 -0.176926 0 0 0 255 0 0
0.453512 -0.385664 -0.176926 0 0 0 255 0 0
0.487591 -0.29165 -0.176926 0 0 0 255 0 0
0.521669 -0.197636 -0.176926 0 0 0 255 0 0
0.555748 -0.103621 -0.176926 0 0 0 255 0 0
0.589826 -0.00960715 -0.176926 0 0 0 255 0 0
0.623904 0.0844071 -0.176926 0 0 0 255 0 0
0.657982 0.178421 -0.176926 0 0 0 255 0 0
0.692061 0.272436 -0.176926 0 0 0 255 0 0
0.138587 -1.54791 -0.176926 0 0 0 255 0 0
0.172665 -1.4539 -0.176926 0 0 0 255 0 0
0.206743 -1.35988 -0.176926 0 0 0 255 0 0
0.240822 -1.26587 -0.176926 0 0 0 255 0 0
0.2749 -1.17186 -0.176926 0 0 0 255 0 0
0.308978 -1.07784 -0.176926 0 0 0 255 0 0
0.343057 -0.983827 -0.176926 0 0 0 255 0 0
0.377135 -0.889813 -0.176926 0 0 0 255 0 0
0.411213 -0.795799 -0.176926 0 0 0 255 0 0
0.445292 -0.701785 -0.176926 0 0 0 255 0 0
0.47937 -0.607771 -0.176926 0 0 0 255 0 0
0.513448 -0.513756 -0.176926 0 0 0 255 0 0
0.547527 -0.419742 -0.176926 0 0 0 255 0 0
0.581605 -0.325728 -0.176926 0 0 0 255 0 0
0.615683 -0.231714 -0.176926 0 0 0 255 0 0
0.649762 -0.1377 -0.176926 0 0 0 255 0 0
0.68384 -0.0436855 -0.176926 0 0 0 255 0 0
0.717918 0.0503288 -0.176926 0 0 0 255 0 0
0.751997 0.144343 -0.176926 0 0 0 255 0 0
0.786075 0.238357 -0.176926 0 0 0 255 0 0
0.232601 -1.58199 -0.176926 0 0 0 255 0 0
0.266679 -1.48798 -0.176926 0 0 0 255 0 0
0.300758 -1.39396 -0.176926 0 0 0 255 0 0
0.334836 -1.29995 -0.176926 0 0 0 255 0 0
0.368914 -1.20593 -0.176926 0 0 0 255 0 0
0.402993 -1.11192 -0.176926 0 0 0 255 0 0
0.437071 -1.01791 -0.176926 0 0 0 255 0 0
0.471149 -0.923892 -0.176926 0 0 0 255 0 0
0.505228 -0.829877 -0.176926 0 0 0 255 0 0
0.539306 -0.735863 -0.176926 0 0 0 255 0 0
0.573384 -0.641849 -0.176926 0 0 0 255 0 0
0.607463 -0.547835 -0.176926 0 0 0 255 0 0
0.641541 -0.453821 -0.176926 0 0 0 255 0 0
0.675619 -0.359806 -0.176926 0 0 0 255 0 0
0.709698 -0.265792 -0.176926 0 0 0 255 0 0
0.743776 -0.171778 -0.176926 0 0 0 255 0 0
0.777854 -0.0777638 -0.176926 0 0 0 255 0 0
0.811933 0.0162504 -0.176926 0 0 0 255 0 0
0.846011 0.110265 -0.176926 0 0 0 255 0 0
0.880089 0.204279 -0.176926 0 0 0 255 0 0
0.326615 -1.61607 -0.176926 0 0 0 255 0 0
0.360694 -1.52206 -0.176926 0 0 0 255 0 0
0.394772 -1.42804 -0.176926 0 0 0 255 0 0
0.42885 -1.33403 -0.176926 0 0 0 255 0 0
0.462929 -1.24001 -0.176926 0 0 0 255 0 0
0.497007 -1.146 -0.176926 0 0 0 255 0 0
0.531085 -1.05198 -0.176926 0 0 0 255 0 0
0.565163 -0.95797 -0.176926 0 0 0 255 0 0
0.599242 -0.863956 -0.176926 0 0 0 255 0 0
0.63332 -0.769942 -0.176926 0 0 0 255 0 0
0.667399 -0.675927 -0.176926 0 0 0 255 0 0
0.701477 -0.581913 -0.176926 0 0 0 255 0 0
0.735555 -0.487899 -0.176926 0 0 0 255 0 0
0.769633 -0.393885 -0.176926 0 0 0 255 0 0
0.803712 -0.299871 -0.176926 0 0 0 255 0 0
0.83779 -0.205856 -0.176926 0 0 0 255 0 0
0.871868 -0.111842 -0.176926 0 0 0 255 0 0
0.905947 -0.0178279 -0.176926 0 0 0 255 0 0
0.940025 0.0761863 -0.176926 0 0 0 255 0 0
0.974103 0.170201 -0.176926 0 0 0 255 0 0
